
<svg xmlns="http://www.w3.org/2000/svg" width="256" height="256" viewBox="0 0 67.733333 67.733336" version="1.1" id="svg3114">
  <defs id="defs3108"></defs>
  
    
  
  
  <g id="layer1">
    <circle style="fill:#3ddd85;fill-opacity:1;stroke-width:0.529167;stroke-linecap:round;stroke-linejoin:round" id="path917" cx="33.866669" cy="33.866669" r="33.866669"></circle>
    <path id="path860" style="fill:#ffffff;fill-opacity:1;stroke-width:0.529167;stroke-linecap:round;stroke-linejoin:round" d="m 16.933334,16.933332 c -0.584501,0 -1.058334,0.473832 -1.058334,1.058334 0,0.584501 0.473833,1.058333 1.058334,1.058333 2.338006,0 4.233333,1.895327 4.233333,4.233334 v 26.458334 c 0,0.584501 0.473832,1.058333 1.058334,1.058333 0.584501,0 1.058333,-0.473832 1.058333,-1.058333 V 23.283333 c 0,-3.507008 -2.842992,-6.350001 -6.35,-6.350001 z"></path>
    <path id="path876" style="fill:#ffffff;fill-opacity:1;stroke-width:0.529167;stroke-linecap:round;stroke-linejoin:round" d="m 40.216668,16.933332 c -5.649667,-3.1e-5 -10.483866,4.056254 -11.464934,9.620087 -0.101499,0.575619 0.28324,1.124783 0.858862,1.22628 0.575622,0.101497 1.124259,-0.283242 1.225767,-0.858861 0.80274,-4.552138 4.757931,-7.870847 9.380305,-7.870839 5.260512,1.1e-5 9.525,4.264488 9.525,9.525 0,2.338004 -1.89533,4.233334 -4.233334,4.233334 h -5.291666 c -6.429516,0 -11.641667,5.212151 -11.641667,11.641667 v 6.35 h 22.225 c 0.584502,0 1.058334,-0.473832 1.058334,-1.058333 0,-0.584502 -0.473832,-1.058334 -1.058334,-1.058334 H 30.691667 V 44.45 c 0,-5.260512 4.264489,-9.525 9.525001,-9.525 h 5.291666 c 3.507008,0 6.350001,-2.842993 6.350001,-6.350001 0,-6.429515 -5.212152,-11.641632 -11.641667,-11.641667 z"></path>
  </g>
</svg>
