


<svg xmlns="http://www.w3.org/2000/svg" width="1000" height="1000" viewBox="0 0 264.58333 264.58334" version="1.1" id="svg1127">
  <defs id="defs1121"></defs>
  
  
  <g id="layer1" transform="translate(13.576432,-111.90996)">
    <g id="g1263">
      <path transform="scale(0.26458333)" id="path1254" d="m 95.355469,1276.2988 a 499.99996,499.99996 0 0 0 353.332031,146.668 499.99996,499.99996 0 0 0 500,-500 499.99996,499.99996 0 0 0 -146.66797,-353.33203 z" style="opacity:1;fill:#f06292;fill-opacity:1;stroke:none;stroke-width:41.5748024;stroke-linecap:square;stroke-linejoin:miter;stroke-miterlimit:4;stroke-dasharray:none;stroke-opacity:0.54672899"></path>
      <path transform="scale(0.26458333)" id="path1190" d="M 95.355469,1276.2988 802.01953,569.63477 A 499.99996,499.99996 0 0 0 448.6875,422.9668 a 499.99996,499.99996 0 0 0 -500,500 499.99996,499.99996 0 0 0 146.667969,353.332 z" style="opacity:1;fill:#e91f63;fill-opacity:1;stroke:none;stroke-width:41.5748024;stroke-linecap:square;stroke-linejoin:miter;stroke-miterlimit:4;stroke-dasharray:none;stroke-opacity:0.54672899"></path>
      <path transform="scale(0.26458333)" id="path1249" d="M 946.49219,966.82422 675.66211,695.99219 221.71289,1149.9414 492.46484,1420.6934 A 499.99996,499.99996 0 0 0 946.49219,966.82422 Z" style="opacity:1;fill:#ed4c82;fill-opacity:1;stroke:none;stroke-width:41.5748024;stroke-linecap:square;stroke-linejoin:miter;stroke-miterlimit:4;stroke-dasharray:none;stroke-opacity:0.54672899"></path>
      <path id="path1173" d="M 58.661619,304.25522 H 118.71597 L 58.661619,244.20087 Z" style="opacity:1;fill:#dddddd;fill-opacity:1;stroke:none;stroke-width:11;stroke-linecap:square;stroke-linejoin:miter;stroke-miterlimit:4;stroke-dasharray:none;stroke-opacity:0.54672899"></path>
      <path id="path1171" d="m 178.76868,244.20087 -60.05271,60.05435 h 60.05271 z" style="opacity:1;fill:#dddddd;fill-opacity:1;stroke:none;stroke-width:11;stroke-linecap:square;stroke-linejoin:miter;stroke-miterlimit:4;stroke-dasharray:none;stroke-opacity:0.54672899"></path>
      <path id="path1180" d="m 118.71597,244.20087 -60.054354,-60.0527 3e-6,60.0527 60.054351,60.05435 z" style="opacity:1;fill:#efefef;fill-opacity:1;stroke:none;stroke-width:11;stroke-linecap:square;stroke-linejoin:miter;stroke-miterlimit:4;stroke-dasharray:none;stroke-opacity:0.54672899"></path>
      <path id="rect1142" d="m 118.71597,244.20087 v 60.05435 l 60.05271,-60.05435 v -60.0527 z" style="opacity:1;fill:#ffffff;fill-opacity:1;stroke:none;stroke-width:11;stroke-linecap:square;stroke-linejoin:miter;stroke-miterlimit:4;stroke-dasharray:none;stroke-opacity:0.54672899"></path>
    </g>
  </g>
</svg>
