<svg width="360" height="80" viewBox="0 0 360 80" fill="none" xmlns="http://www.w3.org/2000/svg">
<rect width="360" height="80" rx="40" fill="url(#paint0_linear_760_258)"/>
<path d="M94.3341 28.8H103.298C105.938 28.8 108.026 29.208 109.562 30.024C111.122 30.84 112.25 32.16 112.946 33.984C113.642 35.808 113.99 38.28 113.99 41.4C113.99 44.544 113.642 47.028 112.946 48.852C112.274 50.652 111.158 51.96 109.598 52.776C108.062 53.592 105.962 54 103.298 54H94.3341V28.8ZM103.298 51.912C105.29 51.912 106.874 51.576 108.05 50.904C109.226 50.208 110.078 49.104 110.606 47.592C111.134 46.056 111.398 44.004 111.398 41.436C111.398 38.868 111.122 36.816 110.57 35.28C110.042 33.744 109.19 32.628 108.014 31.932C106.838 31.236 105.266 30.888 103.298 30.888H96.9261V51.912H103.298ZM126.704 54C123.896 54 121.808 53.388 120.44 52.164C119.096 50.916 118.424 49.02 118.424 46.476V36.324C118.424 33.78 119.096 31.896 120.44 30.672C121.808 29.424 123.896 28.8 126.704 28.8H135.38V30.888H126.704C124.76 30.888 123.32 31.332 122.384 32.22C121.472 33.108 121.016 34.476 121.016 36.324V40.356H133.544V42.444H121.016V46.476C121.016 48.324 121.472 49.692 122.384 50.58C123.32 51.468 124.76 51.912 126.704 51.912H135.596V54H126.704ZM140.635 28.8H142.183C143.239 28.8 144.091 29.04 144.739 29.52C145.411 29.976 146.059 30.804 146.683 32.004L152.011 42.192L157.339 32.004C157.963 30.804 158.599 29.976 159.247 29.52C159.919 29.04 160.783 28.8 161.839 28.8H163.387V54H160.939V31.392C160.603 31.44 160.303 31.572 160.039 31.788C159.799 31.98 159.547 32.328 159.283 32.832L152.011 46.512L144.739 32.832C144.451 32.304 144.187 31.944 143.947 31.752C143.707 31.536 143.419 31.416 143.083 31.392V54H140.635V28.8ZM179.056 54.396C175.864 54.396 173.416 53.616 171.712 52.056C170.008 50.472 169.156 48.192 169.156 45.216V37.584C169.156 34.608 170.008 32.34 171.712 30.78C173.416 29.196 175.864 28.404 179.056 28.404C182.248 28.404 184.696 29.196 186.4 30.78C188.104 32.34 188.956 34.608 188.956 37.584V45.216C188.956 48.192 188.104 50.472 186.4 52.056C184.696 53.616 182.248 54.396 179.056 54.396ZM179.056 52.308C181.408 52.308 183.208 51.696 184.456 50.472C185.728 49.248 186.364 47.496 186.364 45.216V37.584C186.364 35.304 185.728 33.552 184.456 32.328C183.208 31.104 181.408 30.492 179.056 30.492C176.704 30.492 174.892 31.104 173.62 32.328C172.372 33.552 171.748 35.304 171.748 37.584V45.216C171.748 47.496 172.372 49.248 173.62 50.472C174.892 51.696 176.704 52.308 179.056 52.308ZM217.747 45.9H206.371L203.887 54H201.295L207.811 32.94C208.339 31.236 208.903 30.06 209.503 29.412C210.127 28.74 210.979 28.404 212.059 28.404C213.139 28.404 213.991 28.74 214.615 29.412C215.239 30.06 215.815 31.236 216.343 32.94L222.859 54H220.231L217.747 45.9ZM217.135 43.884L213.787 32.976C213.523 32.16 213.271 31.596 213.031 31.284C212.791 30.972 212.467 30.816 212.059 30.816C211.675 30.816 211.363 30.972 211.123 31.284C210.883 31.596 210.631 32.16 210.367 32.976L207.019 43.884H217.135ZM227.365 28.8H238.057C240.457 28.8 242.281 29.424 243.529 30.672C244.801 31.92 245.437 33.732 245.437 36.108C245.437 38.508 244.801 40.332 243.529 41.58C242.281 42.828 240.457 43.452 238.057 43.452H229.957V54H227.365V28.8ZM237.841 41.364C239.425 41.364 240.649 40.908 241.513 39.996C242.401 39.06 242.845 37.764 242.845 36.108C242.845 34.476 242.401 33.204 241.513 32.292C240.649 31.356 239.425 30.888 237.841 30.888H229.957V41.364H237.841ZM249.936 28.8H260.628C263.028 28.8 264.852 29.424 266.1 30.672C267.372 31.92 268.008 33.732 268.008 36.108C268.008 38.508 267.372 40.332 266.1 41.58C264.852 42.828 263.028 43.452 260.628 43.452H252.528V54H249.936V28.8ZM260.412 41.364C261.996 41.364 263.22 40.908 264.084 39.996C264.972 39.06 265.416 37.764 265.416 36.108C265.416 34.476 264.972 33.204 264.084 32.292C263.22 31.356 261.996 30.888 260.412 30.888H252.528V41.364H260.412Z" fill="white"/>
<defs>
<linearGradient id="paint0_linear_760_258" x1="0" y1="40" x2="360" y2="40" gradientUnits="userSpaceOnUse">
<stop stop-color="#ED8BC0"/>
<stop offset="1" stop-color="#8BA1ED"/>
</linearGradient>
</defs>
</svg>
